<svg viewBox="0 0 100 100" xmlns="http://www.w3.org/2000/svg">
  <!-- 背景圆圈 -->
  <circle cx="50" cy="50" r="48" fill="#e0e7ff" stroke="#2b6cb0" stroke-width="2"/>
  
  <!-- 主要书本 -->
  <rect x="25" y="20" width="50" height="60" rx="3" ry="3" fill="#ffffff" stroke="#cbd5e0" stroke-width="1.5"/>
  
  <!-- 书本封面装饰 -->
  <rect x="28" y="23" width="44" height="54" rx="2" ry="2" fill="#dbeafe" stroke="#3b82f6" stroke-width="1"/>
  
  <!-- 问号装饰 -->
  <g transform="translate(50, 45)">
    <circle cx="0" cy="0" r="12" fill="#3b82f6" opacity="0.1"/>
    <path d="M -4,-8 C -4,-12 -1,-15 3,-15 C 7,-15 10,-12 10,-8 C 10,-5 8,-3 5,-1 L 3,1 L 3,4" 
          stroke="#3b82f6" stroke-width="2.5" fill="none" stroke-linecap="round" stroke-linejoin="round"/>
    <circle cx="3" cy="8" r="1.5" fill="#3b82f6"/>
  </g>
  
  <!-- 小灯泡表示想法 -->
  <g transform="translate(35, 30)">
    <ellipse cx="0" cy="0" rx="3" ry="4" fill="#fbbf24" opacity="0.8"/>
    <rect x="-1" y="2" width="2" height="2" fill="#f59e0b" rx="0.5"/>
    <line x1="-2" y1="-5" x2="-2" y2="-3" stroke="#fbbf24" stroke-width="0.8" stroke-linecap="round"/>
    <line x1="2" y1="-5" x2="2" y2="-3" stroke="#fbbf24" stroke-width="0.8" stroke-linecap="round"/>
    <line x1="0" y1="-6" x2="0" y2="-4" stroke="#fbbf24" stroke-width="0.8" stroke-linecap="round"/>
  </g>
  
  <!-- 另一个小灯泡 -->
  <g transform="translate(65, 65)">
    <ellipse cx="0" cy="0" rx="2.5" ry="3" fill="#10b981" opacity="0.8"/>
    <rect x="-0.8" y="1.5" width="1.6" height="1.5" fill="#059669" rx="0.3"/>
    <line x1="-1.5" y1="-4" x2="-1.5" y2="-2.5" stroke="#10b981" stroke-width="0.6" stroke-linecap="round"/>
    <line x1="1.5" y1="-4" x2="1.5" y2="-2.5" stroke="#10b981" stroke-width="0.6" stroke-linecap="round"/>
    <line x1="0" y1="-4.5" x2="0" y2="-3" stroke="#10b981" stroke-width="0.6" stroke-linecap="round"/>
  </g>
  
  <!-- 题目线条 -->
  <line x1="32" y1="55" x2="48" y2="55" stroke="#94a3b8" stroke-width="1.5" stroke-linecap="round"/>
  <line x1="32" y1="60" x2="45" y2="60" stroke="#94a3b8" stroke-width="1.5" stroke-linecap="round"/>
  <line x1="32" y1="65" x2="42" y2="65" stroke="#94a3b8" stroke-width="1.5" stroke-linecap="round"/>
  <line x1="32" y1="70" x2="50" y2="70" stroke="#94a3b8" stroke-width="1.5" stroke-linecap="round"/>
  
  <!-- 可爱的星星 -->
  <g transform="translate(70, 35)">
    <polygon points="0,-2.5 0.7,-0.7 2.5,0 0.7,0.7 0,2.5 -0.7,0.7 -2.5,0 -0.7,-0.7" fill="#f59e0b" opacity="0.7"/>
  </g>
  
  <!-- 小火箭表示提升 -->
  <g transform="translate(30, 75)">
    <polygon points="0,-4 -1.5,2 0,1 1.5,2" fill="#ef4444"/>
    <ellipse cx="0" cy="-2" rx="1" ry="2" fill="#fbbf24"/>
    <circle cx="0" cy="-3" r="0.5" fill="#ffffff"/>
  </g>
</svg> 