<svg viewBox="0 0 100 100" xmlns="http://www.w3.org/2000/svg">
  <!-- 背景圆圈 -->
  <circle cx="50" cy="50" r="48" fill="#fce7f3" stroke="#2b6cb0" stroke-width="2"/>
  
  <!-- 主要卡片 -->
  <rect x="20" y="25" width="60" height="50" rx="6" ry="6" fill="#ffffff" stroke="#cbd5e0" stroke-width="1.5"/>
  
  <!-- 第一个小头像 -->
  <circle cx="35" cy="40" r="8" fill="#ddd6fe" stroke="#8b5cf6" stroke-width="1"/>
  <circle cx="33" cy="37" r="1.5" fill="#8b5cf6"/>
  <circle cx="37" cy="37" r="1.5" fill="#8b5cf6"/>
  <path d="M 31 42 Q 35 45 39 42" stroke="#8b5cf6" stroke-width="1" fill="none" stroke-linecap="round"/>
  
  <!-- 第二个小头像 -->
  <circle cx="65" cy="40" r="8" fill="#fecaca" stroke="#ef4444" stroke-width="1"/>
  <circle cx="63" cy="37" r="1.5" fill="#ef4444"/>
  <circle cx="67" cy="37" r="1.5" fill="#ef4444"/>
  <path d="M 61 42 Q 65 45 69 42" stroke="#ef4444" stroke-width="1" fill="none" stroke-linecap="round"/>
  
  <!-- 连接心形 -->
  <g transform="translate(50, 40)">
    <path d="M 0,-3 C -3,-6 -8,-6 -8,-1 C -8,2 0,8 0,8 C 0,8 8,2 8,-1 C 8,-6 3,-6 0,-3 Z" 
          fill="#f472b6" stroke="#ec4899" stroke-width="0.5"/>
  </g>
  
  <!-- 名单线条 -->
  <line x1="25" y1="55" x2="45" y2="55" stroke="#cbd5e0" stroke-width="2" stroke-linecap="round"/>
  <line x1="55" y1="55" x2="75" y2="55" stroke="#cbd5e0" stroke-width="2" stroke-linecap="round"/>
  <line x1="25" y1="62" x2="40" y2="62" stroke="#cbd5e0" stroke-width="2" stroke-linecap="round"/>
  <line x1="60" y1="62" x2="75" y2="62" stroke="#cbd5e0" stroke-width="2" stroke-linecap="round"/>
  <line x1="25" y1="69" x2="35" y2="69" stroke="#cbd5e0" stroke-width="2" stroke-linecap="round"/>
  <line x1="65" y1="69" x2="75" y2="69" stroke="#cbd5e0" stroke-width="2" stroke-linecap="round"/>
  
  <!-- 可爱的星星装饰 -->
  <g transform="translate(25, 30)">
    <polygon points="0,-3 1,-1 3,0 1,1 0,3 -1,1 -3,0 -1,-1" fill="#fbbf24" opacity="0.7"/>
  </g>
  <g transform="translate(75, 65)">
    <polygon points="0,-2 0.5,-0.5 2,0 0.5,0.5 0,2 -0.5,0.5 -2,0 -0.5,-0.5" fill="#fbbf24" opacity="0.7"/>
  </g>
</svg> 